<svg width="34" height="34" viewBox="0 0 34 34" fill="none" xmlns="http://www.w3.org/2000/svg">
<path d="M24.901 28.0156C25.5781 27.3385 26.3593 27 27.2447 27C28.1301 27 28.8853 27.3385 29.5103 28.0156C30.1874 28.6927 30.526 29.474 30.526 30.3594C30.526 31.2448 30.1874 32.026 29.5103 32.7031C28.8853 33.3281 28.1301 33.6406 27.2447 33.6406C26.3593 33.6406 25.5781 33.3281 24.901 32.7031C24.2239 32.026 23.8853 31.2448 23.8853 30.3594C23.8853 29.474 24.2239 28.6927 24.901 28.0156ZM0.52597 0.359375H5.99472L7.55722 3.64062H32.2447C32.7135 3.64062 33.1041 3.82292 33.4166 4.1875C33.7291 4.5 33.8853 4.89062 33.8853 5.35938C33.8853 5.41146 33.8072 5.67188 33.651 6.14062L27.7135 16.9219C27.0885 18.0677 26.1249 18.6406 24.8228 18.6406H12.401L10.9166 21.375L10.8385 21.6094C10.8385 21.8698 10.9687 22 11.2291 22H30.526V25.3594H10.526C9.64055 25.3594 8.8593 25.0208 8.18222 24.3438C7.55722 23.6667 7.24472 22.8854 7.24472 22C7.24472 21.4792 7.37493 20.9583 7.63535 20.4375L9.90097 16.2969L3.88535 3.64062H0.52597V0.359375ZM8.18222 28.0156C8.8593 27.3385 9.64055 27 10.526 27C11.4114 27 12.1926 27.3385 12.8697 28.0156C13.5468 28.6927 13.8853 29.474 13.8853 30.3594C13.8853 31.2448 13.5468 32.026 12.8697 32.7031C12.1926 33.3281 11.4114 33.6406 10.526 33.6406C9.64055 33.6406 8.8593 33.3281 8.18222 32.7031C7.55722 32.026 7.24472 31.2448 7.24472 30.3594C7.24472 29.474 7.55722 28.6927 8.18222 28.0156Z" fill="white"/>
</svg>
