<svg width="24" height="25" viewBox="0 0 24 25" fill="none" xmlns="http://www.w3.org/2000/svg">
<path d="M0.508789 3.20312C1.10124 3.93229 1.76204 4.77539 2.49121 5.73242C3.22038 6.68945 3.94954 7.64648 4.67871 8.60352C5.45345 9.56055 6.13704 10.4492 6.72949 11.2695C7.36751 12.0898 7.86882 12.7507 8.2334 13.252C8.64355 13.7077 8.84863 13.9355 8.84863 13.9355V22.6855C8.84863 23.0957 8.98535 23.4603 9.25879 23.7793C9.5778 24.0527 9.94238 24.1895 10.3525 24.1895H13.2236C13.6338 24.1895 13.9756 24.0527 14.249 23.7793C14.568 23.4603 14.7275 23.0957 14.7275 22.6855V13.9355C14.7275 13.9355 14.9098 13.7077 15.2744 13.252C15.6846 12.7507 16.1859 12.0898 16.7783 11.2695C17.4163 10.4492 18.0999 9.56055 18.8291 8.60352C19.6038 7.64648 20.3558 6.68945 21.085 5.73242C21.8141 4.77539 22.4749 3.93229 23.0674 3.20312C23.3408 2.88411 23.4548 2.54232 23.4092 2.17773C23.3636 1.81315 23.2041 1.49414 22.9307 1.2207C22.6572 0.947266 22.3154 0.810547 21.9053 0.810547H1.6709C1.26074 0.810547 0.918945 0.947266 0.645508 1.2207C0.37207 1.49414 0.212565 1.81315 0.166992 2.17773C0.121419 2.54232 0.235352 2.88411 0.508789 3.20312Z" fill="#DC9000"/>
</svg>
