<svg width="34" height="34" viewBox="0 0 34 34" fill="none" xmlns="http://www.w3.org/2000/svg">
<path d="M22.0781 15.75C23.1198 14.7083 23.6406 13.4583 23.6406 12C23.6406 10.1771 22.9896 8.61458 21.6875 7.3125C20.3854 6.01042 18.8229 5.35938 17 5.35938C15.1771 5.35938 13.6146 6.01042 12.3125 7.3125C11.0104 8.61458 10.3594 10.1771 10.3594 12H13.6406C13.6406 11.1146 13.9792 10.3333 14.6562 9.65625C15.3333 8.97917 16.1146 8.64062 17 8.64062C17.8854 8.64062 18.6667 8.97917 19.3438 9.65625C20.0208 10.3333 20.3594 11.1146 20.3594 12C20.3594 12.8854 20.0208 13.6667 19.3438 14.3438L17.3125 16.4531C16.0104 17.8594 15.3594 19.4219 15.3594 21.1406V22H18.6406C18.6406 20.2812 19.2917 18.7188 20.5938 17.3125L22.0781 15.75ZM18.6406 28.6406V25.3594H15.3594V28.6406H18.6406ZM5.20312 5.28125C8.48438 2 12.4167 0.359375 17 0.359375C21.5833 0.359375 25.4896 2 28.7188 5.28125C32 8.51042 33.6406 12.4167 33.6406 17C33.6406 21.5833 32 25.5156 28.7188 28.7969C25.4896 32.026 21.5833 33.6406 17 33.6406C12.4167 33.6406 8.48438 32.026 5.20312 28.7969C1.97396 25.5156 0.359375 21.5833 0.359375 17C0.359375 12.4167 1.97396 8.51042 5.20312 5.28125Z" fill="white"/>
</svg>
