<svg width="31" height="38" viewBox="0 0 31 38" fill="none" xmlns="http://www.w3.org/2000/svg">
<path d="M26.6742 25.9707L30.4535 29.75V31.5957H0.394897V29.75L4.17419 25.9707V16.6543C4.17419 13.7246 4.90662 11.1758 6.37146 9.00781C7.8949 6.83984 9.97498 5.43359 12.6117 4.78906V3.4707C12.6117 2.70898 12.8754 2.06445 13.4027 1.53711C13.9301 0.951172 14.6039 0.658203 15.4242 0.658203C16.2445 0.658203 16.9183 0.951172 17.4457 1.53711C17.973 2.06445 18.2367 2.70898 18.2367 3.4707V4.78906C20.8734 5.43359 22.9242 6.83984 24.389 9.00781C25.9125 11.1758 26.6742 13.7246 26.6742 16.6543V25.9707ZM15.4242 37.2207C14.3695 37.2207 13.4613 36.8691 12.6996 36.166C11.9965 35.4629 11.6449 34.584 11.6449 33.5293H19.2035C19.2035 34.5254 18.8226 35.4043 18.0609 36.166C17.2992 36.8691 16.4203 37.2207 15.4242 37.2207Z" fill="white"/>
</svg>
